<svg clip-rule="evenodd" fill-rule="evenodd" stroke-linejoin="round" stroke-miterlimit="2" viewBox="0 0 560 400" xmlns="http://www.w3.org/2000/svg"><path d="m14.695 34.984h-14.675v-34.964h27.018v8.775h-12.343v6.344h9.334v8.775h-9.334zm27.347-34.964v34.964h-13.442v-34.964zm15.62 35.388c-8.041 0-14.27-5.496-14.27-14.271 0-8.485 5.824-14.309 14.27-14.309 8.505 0 14.329 5.824 14.329 14.309 0 8.447-5.824 14.271-14.329 14.271zm0-17.704c-1.735 0-2.931 1.273-2.931 3.144 0 1.89 1.215 3.143 2.931 3.143 1.794 0 2.99-1.273 2.99-3.143 0-1.871-1.215-3.144-2.99-3.144zm43.874-10.317-14.136 34.076h-14.599l5.381-12.168-9.199-21.908h13.345l3.163 7.367 3.027-7.367zm-101.536 33.98v-5.014h68.809v5.014zm94.13-5.014v5.014h35.87v-5.014zm22.428-28.225c-.602-.331-2.591-.973-5.052-.973-7.348 0-12.863 5.921-12.863 13.789 0 6.673 4.223 14.04 15.389 14.04h15.968v-34.964h-13.442zm-1.041 16.808h1.08v-6.21c-.579-.404-1.466-.694-2.276-.694-1.6 0-2.757 1.504-2.757 3.529 0 2.43 1.33 3.375 3.953 3.375z" fill="#3c3c3c" transform="matrix(2.76923 0 0 2.76923 100 142.561)"/></svg>